<?xml version="1.0" encoding="UTF-8"?>
<svg width="236px" height="154px" viewBox="0 0 236 154" version="1.1" xmlns="http://www.w3.org/2000/svg" xmlns:xlink="http://www.w3.org/1999/xlink">
    <!-- Generator: Sketch 63.1 (92452) - https://sketch.com -->
    <title>Group 2</title>
    <desc>Created with Sketch.</desc>
    <g id="Page-1" stroke="none" stroke-width="1" fill="none" fill-rule="evenodd">
        <g id="Artboard" transform="translate(-55.000000, -105.000000)" stroke-width="6">
            <g id="Group-2" transform="translate(59.500000, 110.000000)">
                <polyline id="Path" stroke="#001A83" points="192.5 19 210.5 0 228.5 19"></polyline>
                <polyline id="Path-Copy" stroke="#001A83" transform="translate(210.500000, 134.500000) scale(1, -1) translate(-210.500000, -134.500000) " points="192.5 144 210.5 125 228.5 144"></polyline>
                <line x1="211" y1="5.5" x2="211" y2="138.5" id="Line" stroke="#001A83" stroke-linecap="square"></line>
                <polyline id="Path-Copy-3" stroke="#001A83" points="192.5 19 210.5 0 228.5 19"></polyline>
                <polyline id="Path-Copy-2" stroke="#001A83" transform="translate(210.500000, 134.500000) scale(1, -1) translate(-210.500000, -134.500000) " points="192.5 144 210.5 125 228.5 144"></polyline>
                <line x1="211" y1="5.5" x2="211" y2="138.5" id="Line-Copy" stroke="#001A83" stroke-linecap="square"></line>
                <g id="Group" transform="translate(0.000000, 3.500000)" stroke="#3E64FF" stroke-linecap="square">
                    <line x1="0.5" y1="0.5" x2="25.5" y2="14.5" id="Line-2"></line>
                    <line x1="27.5" y1="0.5" x2="53.5" y2="14.5" id="Line-2-Copy" transform="translate(40.500000, 7.500000) scale(-1, 1) translate(-40.500000, -7.500000) "></line>
                    <line x1="56" y1="1" x2="81" y2="15" id="Line-2-Copy-3"></line>
                    <line x1="83" y1="1" x2="109" y2="15" id="Line-2-Copy-2" transform="translate(96.000000, 8.000000) scale(-1, 1) translate(-96.000000, -8.000000) "></line>
                    <line x1="111" y1="1" x2="136" y2="15" id="Line-2-Copy-5"></line>
                    <line x1="138" y1="1" x2="164" y2="15" id="Line-2-Copy-4" transform="translate(151.000000, 8.000000) scale(-1, 1) translate(-151.000000, -8.000000) "></line>
                </g>
                <g id="Group-Copy" transform="translate(0.000000, 43.500000)" stroke="#3E64FF" stroke-linecap="square">
                    <line x1="0.5" y1="0.5" x2="25.5" y2="14.5" id="Line-2"></line>
                    <line x1="27.5" y1="0.5" x2="53.5" y2="14.5" id="Line-2-Copy" transform="translate(40.500000, 7.500000) scale(-1, 1) translate(-40.500000, -7.500000) "></line>
                    <line x1="56" y1="1" x2="81" y2="15" id="Line-2-Copy-3"></line>
                    <line x1="83" y1="1" x2="109" y2="15" id="Line-2-Copy-2" transform="translate(96.000000, 8.000000) scale(-1, 1) translate(-96.000000, -8.000000) "></line>
                    <line x1="111" y1="1" x2="136" y2="15" id="Line-2-Copy-5"></line>
                    <line x1="138" y1="1" x2="164" y2="15" id="Line-2-Copy-4" transform="translate(151.000000, 8.000000) scale(-1, 1) translate(-151.000000, -8.000000) "></line>
                </g>
                <g id="Group-Copy-3" transform="translate(0.000000, 86.500000)" stroke="#3E64FF" stroke-linecap="square">
                    <line x1="0.5" y1="0.5" x2="25.5" y2="14.5" id="Line-2"></line>
                    <line x1="27.5" y1="0.5" x2="53.5" y2="14.5" id="Line-2-Copy" transform="translate(40.500000, 7.500000) scale(-1, 1) translate(-40.500000, -7.500000) "></line>
                    <line x1="56" y1="1" x2="81" y2="15" id="Line-2-Copy-3"></line>
                    <line x1="83" y1="1" x2="109" y2="15" id="Line-2-Copy-2" transform="translate(96.000000, 8.000000) scale(-1, 1) translate(-96.000000, -8.000000) "></line>
                    <line x1="111" y1="1" x2="136" y2="15" id="Line-2-Copy-5"></line>
                    <line x1="138" y1="1" x2="164" y2="15" id="Line-2-Copy-4" transform="translate(151.000000, 8.000000) scale(-1, 1) translate(-151.000000, -8.000000) "></line>
                </g>
                <g id="Group-Copy-2" transform="translate(0.000000, 126.500000)" stroke="#3E64FF" stroke-linecap="square">
                    <line x1="0.5" y1="0.5" x2="25.5" y2="14.5" id="Line-2"></line>
                    <line x1="27.5" y1="0.5" x2="53.5" y2="14.5" id="Line-2-Copy" transform="translate(40.500000, 7.500000) scale(-1, 1) translate(-40.500000, -7.500000) "></line>
                    <line x1="56" y1="1" x2="81" y2="15" id="Line-2-Copy-3"></line>
                    <line x1="83" y1="1" x2="109" y2="15" id="Line-2-Copy-2" transform="translate(96.000000, 8.000000) scale(-1, 1) translate(-96.000000, -8.000000) "></line>
                    <line x1="111" y1="1" x2="136" y2="15" id="Line-2-Copy-5"></line>
                    <line x1="138" y1="1" x2="164" y2="15" id="Line-2-Copy-4" transform="translate(151.000000, 8.000000) scale(-1, 1) translate(-151.000000, -8.000000) "></line>
                </g>
            </g>
        </g>
    </g>
</svg>