<?xml version="1.0" encoding="UTF-8"?>
<svg width="38px" height="27px" viewBox="0 0 38 27" version="1.1" xmlns="http://www.w3.org/2000/svg" xmlns:xlink="http://www.w3.org/1999/xlink">
    <!-- Generator: Sketch 63.1 (92452) - https://sketch.com -->
    <title>Group 2</title>
    <desc>Created with Sketch.</desc>
    <g id="Page-1" stroke="none" stroke-width="1" fill="none" fill-rule="evenodd">
        <g id="iPhone-11-Pro-Copy-2" transform="translate(-26.000000, -772.000000)" fill="#B2FCFF" stroke="#B2FCFF">
            <g id="footer-copy" transform="translate(-5.000000, 758.000000)">
                <g id="Group-2" transform="translate(31.000000, 14.000000)">
                    <path d="M33.9013199,12.6707388 C33.0212533,12.3748941 32.1086799,12.4764729 31.3446364,12.879242 C30.5742599,13.2853496 29.9553707,13.9966462 29.6672478,14.9140782 C29.3775088,15.8366565 29.4763457,16.7934626 29.8708775,17.5945655 C30.2623494,18.3894552 30.9457242,19.0316176 31.8311423,19.3292612 C33.1751865,19.7810774 34.5827711,19.3074914 36.1971465,18.2966383 C36.4547901,18.3775522 36.7212271,18.3451989 36.944859,18.2140259 C37.1739333,18.0796607 37.3545491,17.8462323 37.4532856,17.539731 C37.5012539,17.2900903 37.4520547,17.0390674 37.3118729,16.8252932 C37.1592184,16.5924983 36.9050712,16.4072096 36.2290263,15.8418331 C36.1975933,15.1223335 35.9517918,14.4341772 35.5364355,13.870094 C35.1360192,13.3263006 34.5774584,12.8980306 33.9013199,12.6707388 Z" id="Combined-Shape"></path>
                    <path d="M16.0990295,15.024063 C15.6536814,14.9084006 15.2030715,14.9825522 14.832834,15.2000089 C14.4616877,15.4179993 14.1720259,15.7794772 14.0459205,16.236016 C13.9357822,16.6603298 14.0092684,17.0966584 14.2187256,17.4530818 C14.4281828,17.8095052 14.773611,18.0860234 15.2053633,18.1981549 L25.9009705,20.975937 C26.3463186,21.0915994 26.7969285,21.0174478 27.167166,20.7999911 C27.5383123,20.5820007 27.8279741,20.2205228 27.9540795,19.763984 C28.0642178,19.3396702 27.9907316,18.9033416 27.7812744,18.5469182 C27.5718172,18.1904948 27.226389,17.9139766 26.7946367,17.8018451 L16.0990295,15.024063 Z" id="Rectangle"></path>
                    <path d="M12.2329152,14.1827835 C12.0416247,14.0810671 11.8270659,14.0634612 11.632634,14.117831 C11.4322658,14.1738608 11.2532722,14.3063285 11.1431457,14.5019536 C11.0059421,14.7456776 10.9727321,15.0215899 11.0312779,15.276422 C11.0898237,15.531254 11.2401251,15.7650059 11.4699442,15.9244092 L12.7670848,16.8172165 C12.9583753,16.9189329 13.1729341,16.9365388 13.367366,16.882169 C13.5677342,16.8261392 13.7467278,16.6936715 13.8568543,16.4980464 C13.9940579,16.2543224 14.0272679,15.9784101 13.9687221,15.723578 C13.9101763,15.468746 13.7598749,15.2349941 13.5300558,15.0755908 L12.2329152,14.1827835 Z" id="Rectangle-Copy"></path>
                    <path d="M7.52825119,8.34300707 C7.38193566,8.17859388 7.17289183,8.08444292 6.95905135,8.07186936 C6.74521086,8.0592958 6.52657373,8.12829963 6.35382563,8.28186112 C6.17148123,8.44395308 6.07058897,8.66403671 6.05478716,8.89006896 C6.03898535,9.11610122 6.108274,9.34808211 6.2662914,9.5339686 L11.4717488,15.6569929 C11.6180643,15.8214061 11.8271082,15.9155571 12.0409487,15.9281306 C12.2547891,15.9407042 12.4734263,15.8717004 12.6461744,15.7181389 C12.8285188,15.5560469 12.929411,15.3359633 12.9452128,15.109931 C12.9610146,14.8838988 12.891726,14.6519179 12.7337086,14.4660314 L7.52825119,8.34300707 Z" id="Rectangle-Copy-2"></path>
                    <path d="M27.3104888,20.1563639 C27.1243424,20.0277286 26.9037039,19.9859923 26.6962674,20.0238591 C26.4869538,20.0620685 26.2917688,20.1811299 26.1569504,20.3712045 C26.0357547,20.5466511 25.9960003,20.7605766 26.0325382,20.9605634 C26.0690761,21.1605502 26.1819064,21.3465982 26.3623687,21.4713055 L32.6895112,25.8436361 C32.8756576,25.9722714 33.0962961,26.0140077 33.3037326,25.9761409 C33.5130462,25.9379315 33.7082312,25.8188701 33.8430496,25.6287955 C33.9642453,25.4533489 34.0039997,25.2394234 33.9674618,25.0394366 C33.9309239,24.8394498 33.8180936,24.6534018 33.6376313,24.5286945 L27.3104888,20.1563639 Z" id="Rectangle-Copy-4"></path>
                    <path d="M3.44145331,0.734921034 L0.771189751,2.53194292 L5.37100886,7.34983746 L6.35909069,6.68488263 L3.44145331,0.734921034 Z" id="Rectangle"></path>
                    <g id="Group-3" transform="translate(22.500000, 13.500000) rotate(-2.000000) translate(-22.500000, -13.500000) translate(16.000000, 10.000000)">
                        <path d="M2.76293482,1.04759625 C2.36788214,0.95442534 1.97192586,1.02854996 1.65000706,1.2243815 C1.32517619,1.42198453 1.07572834,1.74350636 0.978656771,2.14210999 C0.872264106,2.57898871 0.946784049,3.01914483 1.15572564,3.3818696 C1.36466724,3.74459436 1.70803048,4.02988775 2.13932442,4.157041 L8.23706518,5.95240375 C8.63211786,6.04557466 9.02807414,5.97145004 9.34999294,5.7756185 C9.67482381,5.57801547 9.92427166,5.25649364 10.0213432,4.85789001 C10.1277359,4.42101129 10.053216,3.98085517 9.84427436,3.6181304 C9.63533276,3.25540564 9.29196952,2.97011225 8.86067558,2.842959 L2.76293482,1.04759625 Z" id="Rectangle"></path>
                        <path d="M10.7530524,4.72587529 C10.7074223,4.75432741 10.6726463,4.80018683 10.6595399,4.85670967 C10.6425498,4.92998152 10.6567552,5.00355946 10.7053685,5.06675964 C10.7846109,5.16977945 10.9211162,5.24547715 11.1013317,5.30310465 C11.1534637,5.3118184 11.2048295,5.300387 11.2469476,5.27412471 C11.2925777,5.24567259 11.3273537,5.19981317 11.3404601,5.14329033 C11.3574502,5.07001848 11.3432448,4.99644054 11.2946315,4.93324036 C11.2153891,4.83022055 11.0788838,4.75452285 10.7530524,4.72587529 Z" id="Rectangle-Copy-3"></path>
                        <circle id="Oval" transform="translate(11.500000, 4.500000) rotate(15.000000) translate(-11.500000, -4.500000) " cx="11.5" cy="4.5" r="1"></circle>
                    </g>
                </g>
            </g>
        </g>
    </g>
</svg>