<?xml version="1.0" encoding="UTF-8"?>
<svg width="242px" height="233px" viewBox="0 0 242 233" version="1.1" xmlns="http://www.w3.org/2000/svg" xmlns:xlink="http://www.w3.org/1999/xlink">
    <!-- Generator: Sketch 63.1 (92452) - https://sketch.com -->
    <title>Group 2</title>
    <desc>Created with Sketch.</desc>
    <g id="Page-1" stroke="none" stroke-width="1" fill="none" fill-rule="evenodd">
        <g id="Artboard" transform="translate(-69.000000, -61.000000)">
            <g id="Group-2" transform="translate(72.000000, 64.467239)">
                <g id="Group" transform="translate(0.000000, 49.532761)" stroke="#3E64FF">
                    <path d="M25.1137025,7.14339242 C40.8055437,-1.1853903 63.135413,0.0669396292 89.7219098,0.0669396292 L91.5001237,0.0669344569 C118.107599,0.0681556976 141.719512,0.189762671 157.267486,8.79345872 C172.607366,17.2820032 180,34.3424781 180,50.5061128 C180,67.5424183 178.176489,89.8346319 161.513981,100.694977 C154.119683,105.514458 145.23824,109.142577 133.521387,107.656643 C125.959956,106.6977 116.479729,101.118162 107.927292,100.694977 C101.905654,100.397019 96.0333411,105.357311 89.7219053,105.357311 C83.4796433,105.357311 77.8893871,99.5048113 71.7662956,99.415279 C64.1123778,99.3033629 58.8015109,103.833521 52.4017215,105.357311 C40.1576785,108.272619 24.7874024,110.042462 16.5191048,103.696484 C2.81712483,93.1801147 0,65.6641024 0,50.5061128 C0,33.8855183 9.10341347,15.6411982 25.1137025,7.14339242 Z M91.5441589,17.9148324 C24.2027438,17.9148324 18.6717915,32.9406251 18.6717915,51.4758798 C18.6717915,67.0825642 22.5930375,79.4056417 64.0349567,82.9091513 C68.3186526,77.583098 71.2396548,73.4482793 72.7979632,70.5046951 C74.6397963,67.0255437 75.658815,63.1688396 75.8550194,58.9345827 C81.1789325,54.921675 85.4511899,52.9152211 88.6717915,52.9152211 C91.8923931,52.9152211 97.1161181,54.921675 104.342966,58.9345827 C104.145408,62.8711329 104.901211,66.7278371 106.610377,70.5046951 C108.073127,73.7370311 110.713535,77.9701999 114.532162,83.2042347 C157.504558,80.1785852 158.641483,67.814126 158.671024,52.3576285 L158.671506,49.8076849 C158.653321,31.8067739 157.538746,17.9148324 91.5441589,17.9148324 Z" id="Combined-Shape" stroke-width="6" fill="#3E64FF"></path>
                    <line x1="33.0614492" y1="50.4345827" x2="78.0614492" y2="28.4345827" id="Line" stroke-linecap="square"></line>
                    <line x1="58.0614492" y1="54.4345827" x2="81.0614492" y2="41.4345827" id="Line-3" stroke-linecap="square"></line>
                </g>
                <path d="M59.5,212.055288 L143.37897,204.287856 C149.993828,203.415899 154.595767,202.092933 157.184785,200.318957 C159.773804,198.544981 162.438358,194.889001 165.178448,189.351017 L216.406965,72.8171285 C218.448669,68.1334105 219.64061,64.1840677 219.982789,60.9691002 C220.324968,57.7541327 219.963713,53.8987026 218.899023,49.4028098 L210.514608,27.3913511 C206.345543,9.97356966 205.110008,0.864029295 206.808004,0.0627299808 C208.506001,-0.738569334 214.475757,6.13685048 224.717273,20.6889894 L234.952636,49.4028098 C235.723292,54.8756763 235.910043,59.1366186 235.512889,62.1856366 C235.115734,65.2346547 233.751891,70.010446 231.421358,76.5130104 L181.438551,189.351017 C178.115474,196.013677 175.145952,200.992624 172.529986,204.287856 C169.914019,207.583088 165.774138,211.559582 160.110342,216.217336 L63,226.256229 C57.6407456,224.474726 54.7650609,222.788488 54.372946,221.197516 C53.980831,219.606545 55.689849,216.559135 59.5,212.055288 Z" id="Path-3" stroke="#001A83" stroke-width="6" fill="#001A83"></path>
                <path d="M64,175.532761 C64,192.101303 75.6405965,205.532761 90,205.532761 C104.359403,205.532761 116,192.101303 116,175.532761" id="Path" stroke="#001A83" stroke-width="6" fill="#001A83" transform="translate(90.000000, 190.532761) rotate(-5.000000) translate(-90.000000, -190.532761) "></path>
            </g>
        </g>
    </g>
</svg>