<?xml version="1.0" encoding="UTF-8"?>
<svg width="206px" height="302px" viewBox="0 0 206 302" version="1.1" xmlns="http://www.w3.org/2000/svg" xmlns:xlink="http://www.w3.org/1999/xlink">
    <!-- Generator: Sketch 63.1 (92452) - https://sketch.com -->
    <title>Group</title>
    <desc>Created with Sketch.</desc>
    <g id="Page-1" stroke="none" stroke-width="1" fill="none" fill-rule="evenodd">
        <g id="Artboard" transform="translate(-69.000000, -16.000000)">
            <g id="Group" transform="translate(69.000000, 16.000000)">
                <rect id="Rectangle" stroke="#979797" fill="#001A83" x="45.5" y="0.5" width="102" height="70"></rect>
                <rect id="Rectangle-Copy" stroke="#979797" fill="#001A83" x="45.5" y="231.5" width="102" height="70"></rect>
                <path d="M64.7408514,33 L64.7400014,57.3483257 C74.68592,53.8832238 85.3730347,52 96.5,52 C107.530639,52 118.12901,53.8507588 128.001527,57.2586894 L128,33 L152.915749,33 L162.543953,78.1401802 C165.724929,81.1272088 168.703287,84.3275 171.456202,87.718228 L190.958862,76.9072279 L205.987961,104.020439 L186.881507,114.610742 C190.836844,125.154613 193,136.574691 193,148.5 C193,176.237183 181.297647,201.241135 162.560846,218.843953 L152.915749,264.062882 L128,264.062882 L128.001527,239.741311 C118.12901,243.149241 107.530639,245 96.5,245 C85.3730347,245 74.68592,243.116776 64.7400014,239.651674 L64.7408514,264.062882 L39.8251028,264.062882 L30.1130941,218.536206 C11.566687,200.950327 -1.42108547e-14,176.075936 -1.42108547e-14,148.5 C-1.42108547e-14,120.915613 11.5737782,96.0344261 30.1301489,78.4476261 L39.8251028,33 L64.7408514,33 Z M96,71 C53.4740743,71 19,105.474074 19,148 C19,190.525926 53.4740743,225 96,225 C138.525926,225 173,190.525926 173,148 C173,105.474074 138.525926,71 96,71 Z" id="Combined-Shape" fill="#3E64FF"></path>
            </g>
        </g>
    </g>
</svg>