<?xml version="1.0" encoding="UTF-8"?>
<svg width="18px" height="25px" viewBox="0 0 18 25" version="1.1" xmlns="http://www.w3.org/2000/svg" xmlns:xlink="http://www.w3.org/1999/xlink">
    <!-- Generator: Sketch 63.1 (92452) - https://sketch.com -->
    <title>Account</title>
    <desc>Created with Sketch.</desc>
    <g id="Page-1" stroke="none" stroke-width="1" fill="none" fill-rule="evenodd">
        <g id="iPhone-11-Pro-Copy-2" transform="translate(-332.000000, -772.000000)" stroke="#B2FCFF">
            <g id="footer-copy" transform="translate(-5.000000, 758.000000)">
                <g id="Account" transform="translate(338.000000, 14.000000)">
                    <g id="Group" transform="translate(0.000000, 18.000000)" stroke-linecap="round" stroke-linejoin="round" stroke-width="2">
                        <path d="M16,6 L16,4 C16,1.790861 14.0897483,0 11.7333333,0 L4.26666667,0 C1.91025173,0 0,1.790861 0,4 L0,6" id="Shape"></path>
                    </g>
                    <g id="Group" transform="translate(2.000000, 0.000000)" fill="#B2FCFF">
                        <path d="M5.98881017,0.5 C7.59261174,0.5 9.08555746,0.97926056 10.111404,2.29704382 C11.0993205,3.56610276 11.5,5.61963672 11.5,7.5 C11.5,8.57885334 11.2916263,9.26224167 10.9345234,10.1752023 C10.4425934,11.4328585 9.69999556,12.5836294 8.76355624,13.387045 C7.96754751,14.0699786 7.02988116,14.5 5.98881017,14.5 C5.04919876,14.5 4.22292902,14.1678847 3.51004693,13.6188282 C2.66163786,12.9653897 1.97234199,12.0109513 1.43611444,10.926704 C0.912292293,9.86754033 0.5,8.8274066 0.5,7.5 C0.5,5.78112179 0.556420779,3.9330895 1.40011845,2.70433856 C2.43811156,1.19261812 4.24841011,0.5 5.98881017,0.5 Z M5.98001523,2 L5.98001523,2 C4.32489826,2 2.89183808,2.67914906 1.90888419,3.89340246 C1.13951165,4.84381656 0.772951094,6.16173584 0.772951094,7.5 C0.772951094,8.53728537 0.927465215,9.44917235 1.40954551,10.2759672 C2.34575767,11.8816239 4.03501269,13 5.98001523,13 C7.02004492,13 8.00251957,12.6642285 8.83616444,12.1016876 C9.70775015,11.5135443 10.4152746,10.6774003 10.8534672,9.72718312 C11.184359,9.0096469 11.2046693,8.34981628 11.2046693,7.5 C11.2046693,6.04220459 10.6544367,4.52470836 9.75525653,3.54497601 C8.77627575,2.47829416 7.52017518,2 5.98001523,2 Z" id="Combined-Shape"></path>
                    </g>
                </g>
            </g>
        </g>
    </g>
</svg>