<?xml version="1.0" encoding="UTF-8"?>
<svg width="18px" height="25px" viewBox="0 0 18 25" version="1.1" xmlns="http://www.w3.org/2000/svg" xmlns:xlink="http://www.w3.org/1999/xlink">
    <!-- Generator: Sketch 63.1 (92452) - https://sketch.com -->
    <title>Account</title>
    <desc>Created with Sketch.</desc>
    <g id="Page-1" stroke="none" stroke-width="1" fill="none" fill-rule="evenodd">
        <g id="iPhone-11-Pro-Copy-2" transform="translate(-332.000000, -772.000000)" stroke="#B2FCFF">
            <g id="footer-copy" transform="translate(-5.000000, 758.000000)">
                <g id="Account" transform="translate(338.000000, 14.000000)">
                    <g id="Group" transform="translate(0.000000, 18.000000)" stroke-linecap="round" stroke-linejoin="round" stroke-width="2">
                        <path d="M16,6 L16,4 C16,1.790861 14.0897483,0 11.7333333,0 L4.26666667,0 C1.91025173,0 0,1.790861 0,4 L0,6" id="Shape"></path>
                    </g>
                    <g id="Group" transform="translate(2.000000, 0.000000)" fill="#B2FCFF">
                        <path d="M5.98881017,0.5 C7.59261174,0.5 9.08555746,0.97926056 10.111404,2.29704382 C11.0993205,3.56610276 11.5,5.61963672 11.5,7.5 C11.5,8.57885334 11.2916263,9.26224167 10.9345234,10.1752023 C10.4425934,11.4328585 9.69999556,12.5836294 8.76355624,13.387045 C7.96754751,14.0699786 7.02988116,14.5 5.98881017,14.5 C5.04919876,14.5 4.22292902,14.1678847 3.51004693,13.6188282 C2.80642219,13.0769016 2.21223787,12.3279427 1.72404578,11.4696052 C2.16319707,12.1248553 2.71727905,12.6819822 3.35184438,13.0955076 C4.12728708,13.6008382 5.02257323,13.8928571 5.98001523,13.8928571 C7.02559407,13.8928571 8.01416954,13.5266826 8.85261635,12.9103852 C9.71920848,12.2733996 10.4240621,11.3687143 10.8598588,10.3393156 C11.186229,9.56839424 11.2046693,8.85885585 11.2046693,7.94642857 C11.2046693,6.3753832 10.6588128,4.74016868 9.76925523,3.68438091 C8.78664436,2.51815117 7.52483905,2 5.98001523,2 C4.32171197,2 2.88221251,2.73546725 1.89619485,4.06225877 C1.1355264,5.08581898 0.772951094,6.50558184 0.772951094,7.94642857 C0.772951094,8.72295635 0.846543066,9.4345444 1.05196889,10.0953499 C0.724879914,9.30399032 0.5,8.48033994 0.5,7.5 C0.5,5.78112179 0.556420779,3.9330895 1.40011845,2.70433856 C2.43811156,1.19261812 4.24841011,0.5 5.98881017,0.5 Z" id="Combined-Shape"></path>
                        <path d="" id="Rectangle" transform="translate(4.068097, 7.149955) rotate(23.000000) translate(-4.068097, -7.149955) "></path>
                        <path d="" id="Rectangle-Copy-4" transform="translate(8.965598, 7.286542) rotate(23.000000) translate(-8.965598, -7.286542) "></path>
                        <path d="" id="Rectangle-Copy-3" transform="translate(7.829291, 6.882098) rotate(23.000000) translate(-7.829291, -6.882098) "></path>
                        <path d="" id="Rectangle-Copy-2" transform="translate(2.779375, 7.142857) rotate(23.000000) translate(-2.779375, -7.142857) "></path>
                        <path d="M10.6277696,8.10670009 C10.6022282,8.23122149 10.5727071,8.36225761 10.5392453,8.49981235 C10.1075568,8.66335283 9.77452486,8.75 9.53895059,8.75 C9.28013384,8.75 8.88782675,8.64653017 8.36069242,8.45158981 C8.14958132,8.38727442 7.95968801,8.28934391 7.78488515,8.15676094 C7.88642227,8.19651984 7.99139966,8.22951938 8.09969575,8.25549865 C8.64542238,8.412956 9.05241604,8.48809524 9.32007553,8.48809524 C9.56560884,8.48809524 9.91346561,8.42536634 10.4864153,8.17253509 Z M1.39106129,5.78981413 L1.398327,5.74926783 C1.31014843,6.19573008 1.26724138,6.55654386 1.26724138,6.83153533 C1.26724138,7.10302933 1.30968956,7.51036465 1.58219351,8.25620319 C2.19976259,8.41265871 2.65963128,8.48809524 2.96135443,8.48809524 C3.26506484,8.48809524 3.66727783,8.41327078 4.16731117,8.25750043 L4.3034044,8.22908439 C4.14586349,8.33012511 3.97258842,8.40101659 3.78352036,8.44165076 C3.26011762,8.64782451 2.87307355,8.75 2.58035013,8.75 C2.30651795,8.75 1.90223019,8.66310922 1.36681863,8.49635437 C1.28928642,7.8533166 1.25,7.3648182 1.25,7.03081613 C1.25,6.70913403 1.28677587,6.29747723 1.3596258,5.79575172 C1.37011724,5.79376713 1.38059573,5.79178793 1.39106129,5.78981413 Z" id="Combined-Shape" stroke-width="0.5"></path>
                    </g>
                </g>
            </g>
        </g>
    </g>
</svg>