<?xml version="1.0" encoding="UTF-8"?>
<svg width="18px" height="22px" viewBox="0 0 18 22" version="1.1" xmlns="http://www.w3.org/2000/svg" xmlns:xlink="http://www.w3.org/1999/xlink">
    <!-- Generator: Sketch 63.1 (92452) - https://sketch.com -->
    <title>LogBook</title>
    <desc>Created with Sketch.</desc>
    <g id="Page-1" stroke="none" stroke-width="1" fill="none" fill-rule="evenodd" stroke-linecap="round" stroke-linejoin="round">
        <g id="Artboard" transform="translate(-295.000000, -256.000000)" stroke="#B2FCFF" stroke-width="2">
            <g id="footer-copy" transform="translate(49.000000, 238.000000)">
                <g id="LogBook" transform="translate(247.000000, 19.000000)">
                    <g id="ICO/general/book">
                        <path d="M0,18 C0,16.3431458 1.11928813,15 2.5,15 L16,15" id="Shape"></path>
                        <path d="M2.5,0 L16,0 L16,20 L2.5,20 C1.11928813,20 0,18.8807119 0,17.5 L0,2.5 C0,1.11928813 1.11928813,0 2.5,0 Z" id="Shape"></path>
                    </g>
                    <g id="ICO/general/anchor" transform="translate(3.000000, 3.000000)">
                        <g id="anchor_link_">
                            <circle id="Oval" cx="4.5" cy="1.35" r="1.35"></circle>
                            <line x1="4.5" y1="9" x2="4.5" y2="2.7" id="Shape"></line>
                            <path d="M1.35,4.5 L0,4.5 C0,6.98528137 2.01471863,9 4.5,9 C6.98528137,9 9,6.98528137 9,4.5 L7.65,4.5" id="Shape"></path>
                        </g>
                    </g>
                </g>
            </g>
        </g>
    </g>
</svg>