<?xml version="1.0" encoding="UTF-8"?>
<svg width="187px" height="192px" viewBox="0 0 187 192" version="1.1" xmlns="http://www.w3.org/2000/svg" xmlns:xlink="http://www.w3.org/1999/xlink">
    <!-- Generator: Sketch 63.1 (92452) - https://sketch.com -->
    <title>Cave</title>
    <desc>Created with Sketch.</desc>
    <g id="Page-1" stroke="none" stroke-width="1" fill="none" fill-rule="evenodd">
        <g id="Artboard" transform="translate(-844.000000, -77.000000)" stroke="#B2FCFF">
            <g id="Cave" transform="translate(844.000000, 78.000000)">
                <g id="Night-Copy" transform="translate(110.031217, 99.247058)" fill="#B2FCFF">
                    <path d="M19.5,1.64697945 L14.4923404,2.95181734 L0.5,2.95181734 L0.5,8.5 L11.1624377,8.5 L11.5121,7.57787858 L10.7981677,8.23632247 L1.095,8.23598248 L1.095,5.74196623 L14.5491919,5.74287488 L19.5,7.06371182 L19.5,1.64697945 Z" id="Combined-Shape"></path>
                    <path d="M21.9800003,1.94183799 L25.1875291,1.9606402 L25.0626863,0.969208433 L21.9800003,1.94183799 Z" id="Rectangle" transform="translate(22.764101, 1.411862) rotate(-6.000000) translate(-22.764101, -1.411862) "></path>
                    <path d="M22.0015508,6.98369293 L25.2090795,7.00249514 L25.0842368,6.01106338 L22.0015508,6.98369293 Z" id="Rectangle-Copy" transform="translate(22.785652, 6.453717) scale(1, -1) rotate(-6.000000) translate(-22.785652, -6.453717) "></path>
                    <path d="M25.5,2.59297289 L20.5,3.7055558 L25.5,4.42312075 L25.5,2.59297289 Z" id="Rectangle"></path>
                </g>
                <g id="Group-2-Copy" transform="translate(70.500000, 96.677462) rotate(-18.000000) translate(-70.500000, -96.677462) translate(29.000000, 76.677462)" fill="#B2FCFF">
                    <path d="M75.4310329,12.8434402 C73.6415067,12.2481535 71.7857694,12.4520689 70.2320511,13.2625638 C68.6739669,14.0753361 67.4199491,15.4974295 66.8370007,17.334248 C66.2529159,19.1746467 66.4525482,21.0832416 67.2478429,22.6812326 C68.0409933,24.2749149 69.4271633,25.5600494 71.2203678,26.1565598 C72.5211775,26.5892747 73.8570306,26.5999467 75.0863973,26.2619115 C76.4601224,25.8841826 77.7007893,25.0717123 78.6121297,23.9280434 L79.5171155,24.2285084 C80.1182301,24.4192373 80.7466611,24.3449676 81.2737185,24.0507944 C81.797073,23.7586879 82.2178069,23.2521566 82.4312402,22.5843168 C82.5803278,21.9812538 82.4799931,21.3670973 82.1467874,20.8448934 C81.8119516,20.3201347 81.24847,19.8923234 80.1445447,19.1861751 C80.0814488,17.7496482 79.5852335,16.3758744 78.747414,15.2496735 C77.9354449,14.158221 76.8021178,13.2995323 75.4310329,12.8434402 Z" id="Combined-Shape"></path>
                    <path d="M41.920656,17.4966662 C40.9689898,17.2495066 40.0061218,17.4081087 39.2149925,17.8727734 C38.4255074,18.3364724 37.8077683,19.104448 37.539393,20.0760454 C37.3007707,20.9950756 37.4584599,21.9313643 37.9079202,22.6961896 C38.3573805,23.4610149 39.0986118,24.054377 40.0250805,24.2949924 L60.079344,29.5033338 C61.0310102,29.7504934 61.9938782,29.5918913 62.7850075,29.1272266 C63.5744926,28.6635276 64.1922317,27.895552 64.460607,26.9239546 C64.6992293,26.0049244 64.5415401,25.0686357 64.0920798,24.3038104 C63.6426195,23.5389851 62.9013882,22.945623 61.9749195,22.7050076 L41.920656,17.4966662 Z" id="Rectangle"></path>
                    <path d="M24.4915554,9.453154 C24.1206492,9.04100547 23.6180983,8.8172131 23.104646,8.7885235 C22.5891601,8.75972027 22.0626861,8.92756829 21.6474075,9.29889466 C21.2111142,9.68901159 20.969674,10.2173134 20.9317518,10.7598409 C20.8938295,11.3023684 21.0594251,11.8591217 21.4372032,12.3061416 L31.2771947,23.9481555 C31.6481008,24.360304 32.1506517,24.5840964 32.6641041,24.612786 C33.17959,24.6415892 33.7060639,24.4737412 34.1213425,24.1024148 C34.5576359,23.7122979 34.799076,23.1839961 34.8369982,22.6414686 C34.8749205,22.0989411 34.7093249,21.5421878 34.3315469,21.0951679 L24.4915554,9.453154 Z" id="Rectangle-Copy-2" transform="translate(27.884375, 16.700655) rotate(-30.000000) translate(-27.884375, -16.700655) "></path>
                    <path d="M62.639049,26.8036976 C62.1828038,26.4925608 61.6437417,26.3925228 61.135314,26.4883513 C60.6261203,26.5843242 60.1489468,26.8763412 59.8126321,27.3446366 C59.5228014,27.7699011 59.4305083,28.2842212 59.5212201,28.763936 C59.611932,29.2436507 59.8856488,29.68876 60.3208697,29.9855592 L72.360951,38.1963024 C72.8171962,38.5074392 73.3562583,38.6074772 73.864686,38.5116487 C74.3738797,38.4156758 74.8510532,38.1236588 75.1873679,37.6553634 C75.4771986,37.2300989 75.5694917,36.7157788 75.4787799,36.236064 C75.388068,35.7563493 75.1143512,35.31124 74.6791303,35.0144408 L62.639049,26.8036976 Z" id="Rectangle-Copy-4"></path>
                    <path d="M9.8733167,4.06780178 L4.08129143,8.00317246 L13.2289424,17.6766379 L15.6756163,16.0142542 L9.8733167,4.06780178 Z" id="Rectangle" transform="translate(9.814301, 10.829332) rotate(-38.000000) translate(-9.814301, -10.829332) "></path>
                    <g id="Group-3" transform="translate(52.829858, 14.917123) rotate(-2.000000) translate(-52.829858, -14.917123) translate(41.329858, 7.917123)">
                        <path d="M5.34583776,1.54759954 C4.47565227,1.33809735 3.60238946,1.49946943 2.89284923,1.93040965 C2.18038117,2.36312809 1.63298964,3.06764393 1.41954787,3.94139177 C1.18995447,4.88125815 1.35005872,5.82835286 1.79962172,6.60868542 C2.24918471,7.38901797 2.98820645,8.00258837 3.91644802,8.27540613 L15.4962675,11.6746227 C16.366453,11.8841249 17.2397158,11.7227528 17.949256,11.2918126 C18.6617241,10.8590941 19.2091156,10.1545783 19.4225574,9.28083046 C19.6521508,8.34096408 19.4920465,7.39386936 19.0424835,6.61353681 C18.5929205,5.83320425 17.8538988,5.21963385 16.9256572,4.94681609 L5.34583776,1.54759954 Z" id="Rectangle"></path>
                        <path d="M20.7589311,8.43981521 C20.5370582,8.39235459 20.3161923,8.43708013 20.1369564,8.54867112 C19.9536708,8.66278339 19.8139176,8.84681676 19.7611401,9.07372367 C19.6989113,9.34126514 19.7504542,9.61009094 19.92879,9.84106267 C20.1275963,10.0985469 20.4621892,10.3048306 20.9252794,10.4490737 C21.1471523,10.4965343 21.3680182,10.4518088 21.5472541,10.3402178 C21.7305397,10.2261055 21.8702929,10.0420721 21.9230704,9.81516522 C21.9852993,9.54762374 21.9337564,9.27879795 21.7554206,9.04782621 C21.5566142,8.79034198 21.2220214,8.58405826 20.7589311,8.43981521 Z" id="Rectangle-Copy-3"></path>
                        <ellipse id="Oval" transform="translate(21.789474, 8.500000) rotate(15.000000) translate(-21.789474, -8.500000) " cx="21.7894737" cy="8.5" rx="1" ry="1"></ellipse>
                    </g>
                </g>
                <polyline id="Path-5" points="0.79547929 51.7018121 53.164725 2.27373675e-13 77.9495327 23.4245949 96.3747122 6.02802344 147.434436 56.4055291 185.558411 19.1084541 185.558411 173.211684 155.865009 143.631282 108.485675 189.941878 69.3415405 150.563298"></polyline>
                <path d="M107.418987,19.080976 L99.8915896,26.1003878 L114.69395,26.8824188 L107.418987,19.080976 Z" id="Triangle" fill="#B2FCFF" transform="translate(107.296879, 22.910676) rotate(-137.000000) translate(-107.296879, -22.910676) "></path>
                <path d="M116.958241,28.5465259 L104.587498,40.0824302 L128.279069,40.6866278 L116.958241,28.5465259 Z" id="Triangle-Copy" fill="#B2FCFF" transform="translate(116.404476, 34.528342) rotate(-137.000000) translate(-116.404476, -34.528342) "></path>
                <path d="M180.279377,91.3956491 L169.96228,101.061786 L190.00595,101.761727 L180.279377,91.3956491 Z" id="Triangle-Copy-3" fill="#B2FCFF" transform="translate(179.971303, 96.496453) rotate(-92.000000) translate(-179.971303, -96.496453) "></path>
                <path d="M177.370867,107.854835 L161.628042,123.453062 L192.717627,124.538734 L177.370867,107.854835 Z" id="Triangle-Copy-2" fill="#B2FCFF" transform="translate(177.174550, 116.107291) rotate(-92.000000) translate(-177.174550, -116.107291) "></path>
            </g>
        </g>
    </g>
</svg>