<?xml version="1.0" encoding="UTF-8"?>
<svg width="77px" height="209px" viewBox="0 0 77 209" version="1.1" xmlns="http://www.w3.org/2000/svg" xmlns:xlink="http://www.w3.org/1999/xlink">
    <!-- Generator: Sketch 63.1 (92452) - https://sketch.com -->
    <title>Deep</title>
    <desc>Created with Sketch.</desc>
    <defs>
        <filter x="-81.2%" y="-22.6%" width="262.5%" height="145.2%" filterUnits="objectBoundingBox" id="filter-1">
            <feOffset dx="0" dy="2" in="SourceAlpha" result="shadowOffsetOuter1"></feOffset>
            <feGaussianBlur stdDeviation="2" in="shadowOffsetOuter1" result="shadowBlurOuter1"></feGaussianBlur>
            <feColorMatrix values="0 0 0 0 0   0 0 0 0 0   0 0 0 0 0  0 0 0 0.5 0" type="matrix" in="shadowBlurOuter1" result="shadowMatrixOuter1"></feColorMatrix>
            <feMerge>
                <feMergeNode in="shadowMatrixOuter1"></feMergeNode>
                <feMergeNode in="SourceGraphic"></feMergeNode>
            </feMerge>
        </filter>
    </defs>
    <g id="Page-1" stroke="none" stroke-width="1" fill="none" fill-rule="evenodd">
        <g id="Artboard" transform="translate(-664.000000, -55.000000)" stroke="#B2FCFF">
            <g id="Deep" transform="translate(664.000000, 57.000000)">
                <g id="Group-2" transform="translate(0.000000, 156.000000)" fill="#B2FCFF">
                    <path d="M64.4310329,23.8434402 C62.6415067,23.2481535 60.7857694,23.4520689 59.2320511,24.2625638 C57.6739669,25.0753361 56.4199491,26.4974295 55.8370007,28.334248 C55.2529159,30.1746467 55.4525482,32.0832416 56.2478429,33.6812326 C57.0409933,35.2749149 58.4271633,36.5600494 60.2203678,37.1565598 C61.5211775,37.5892747 62.8570306,37.5999467 64.0863973,37.2619115 C65.4601224,36.8841826 66.7007893,36.0717123 67.6121297,34.9280434 L68.5171155,35.2285084 C69.1182301,35.4192373 69.7466611,35.3449676 70.2737185,35.0507944 C70.797073,34.7586879 71.2178069,34.2521566 71.4312402,33.5843168 C71.5803278,32.9812538 71.4799931,32.3670973 71.1467874,31.8448934 C70.8119516,31.3201347 70.24847,30.8923234 69.1445447,30.1861751 C69.0814488,28.7496482 68.5852335,27.3758744 67.747414,26.2496735 C66.9354449,25.158221 65.8021178,24.2995323 64.4310329,23.8434402 Z" id="Combined-Shape"></path>
                    <path d="M30.920656,28.4966662 C29.9689898,28.2495066 29.0061218,28.4081087 28.2149925,28.8727734 C27.4255074,29.3364724 26.8077683,30.104448 26.539393,31.0760454 C26.3007707,31.9950756 26.4584599,32.9313643 26.9079202,33.6961896 C27.3573805,34.4610149 28.0986118,35.054377 29.0250805,35.2949924 L49.079344,40.5033338 C50.0310102,40.7504934 50.9938782,40.5918913 51.7850075,40.1272266 C52.5744926,39.6635276 53.1922317,38.895552 53.460607,37.9239546 C53.6992293,37.0049244 53.5415401,36.0686357 53.0920798,35.3038104 C52.6426195,34.5389851 51.9013882,33.945623 50.9749195,33.7050076 L30.920656,28.4966662 Z" id="Rectangle"></path>
                    <path d="M23.2283328,26.7873304 C22.784523,26.5439726 22.2839458,26.50022 21.83102,26.6268736 C21.3717702,26.7552955 20.9615117,27.0589153 20.7090986,27.5072937 C20.4115026,28.0359336 20.3394699,28.63439 20.4664562,29.1871233 C20.5934425,29.7398566 20.9194479,30.2468667 21.4179278,30.5926141 L23.7716672,32.2126696 C24.215477,32.4560274 24.7160542,32.49978 25.16898,32.3731264 C25.6282298,32.2447045 26.0384883,31.9410847 26.2909014,31.4927063 C26.5884974,30.9640664 26.6605301,30.36561 26.5335438,29.8128767 C26.4065575,29.2601434 26.0805521,28.7531333 25.5820722,28.4073859 L23.2283328,26.7873304 Z" id="Rectangle-Copy"></path>
                    <path d="M15.1071803,15.2524993 C14.7362742,14.8403507 14.2337233,14.6165584 13.7202709,14.5878688 C13.204785,14.5590655 12.6783111,14.7269136 12.2630325,15.0982399 C11.8267392,15.4883569 11.585299,16.0166586 11.5473768,16.5591862 C11.5094545,17.1017137 11.6750501,17.6584669 12.0528281,18.1054869 L21.8928197,29.7475007 C22.2637258,30.1596493 22.7662767,30.3834416 23.2797291,30.4121312 C23.795215,30.4409345 24.3216889,30.2730864 24.7369675,29.9017601 C25.1732608,29.5116431 25.414701,28.9833414 25.4526232,28.4408138 C25.4905455,27.8982863 25.3249499,27.3415331 24.9471719,26.8945131 L15.1071803,15.2524993 Z" id="Rectangle-Copy-2"></path>
                    <path d="M51.639049,37.8036976 C51.1828038,37.4925608 50.6437417,37.3925228 50.135314,37.4883513 C49.6261203,37.5843242 49.1489468,37.8763412 48.8126321,38.3446366 C48.5228014,38.7699011 48.4305083,39.2842212 48.5212201,39.763936 C48.611932,40.2436507 48.8856488,40.68876 49.3208697,40.9855592 L61.360951,49.1963024 C61.8171962,49.5074392 62.3562583,49.6074772 62.864686,49.5116487 C63.3738797,49.4156758 63.8510532,49.1236588 64.1873679,48.6553634 C64.4771986,48.2300989 64.5694917,47.7157788 64.4787799,47.236064 C64.388068,46.7563493 64.1143512,46.31124 63.6791303,46.0144408 L51.639049,37.8036976 Z" id="Rectangle-Copy-4"></path>
                    <path d="M6.5590155,0.738469944 L0.766990228,4.67384063 L9.91464125,14.3473061 L12.3613151,12.6849223 L6.5590155,0.738469944 Z" id="Rectangle"></path>
                    <g id="Group-3" transform="translate(41.829858, 25.917123) rotate(-2.000000) translate(-41.829858, -25.917123) translate(30.329858, 18.917123)">
                        <path d="M5.34583776,1.54759954 C4.47565227,1.33809735 3.60238946,1.49946943 2.89284923,1.93040965 C2.18038117,2.36312809 1.63298964,3.06764393 1.41954787,3.94139177 C1.18995447,4.88125815 1.35005872,5.82835286 1.79962172,6.60868542 C2.24918471,7.38901797 2.98820645,8.00258837 3.91644802,8.27540613 L15.4962675,11.6746227 C16.366453,11.8841249 17.2397158,11.7227528 17.949256,11.2918126 C18.6617241,10.8590941 19.2091156,10.1545783 19.4225574,9.28083046 C19.6521508,8.34096408 19.4920465,7.39386936 19.0424835,6.61353681 C18.5929205,5.83320425 17.8538988,5.21963385 16.9256572,4.94681609 L5.34583776,1.54759954 Z" id="Rectangle"></path>
                        <path d="M20.7589311,8.43981521 C20.5370582,8.39235459 20.3161923,8.43708013 20.1369564,8.54867112 C19.9536708,8.66278339 19.8139176,8.84681676 19.7611401,9.07372367 C19.6989113,9.34126514 19.7504542,9.61009094 19.92879,9.84106267 C20.1275963,10.0985469 20.4621892,10.3048306 20.9252794,10.4490737 C21.1471523,10.4965343 21.3680182,10.4518088 21.5472541,10.3402178 C21.7305397,10.2261055 21.8702929,10.0420721 21.9230704,9.81516522 C21.9852993,9.54762374 21.9337564,9.27879795 21.7554206,9.04782621 C21.5566142,8.79034198 21.2220214,8.58405826 20.7589311,8.43981521 Z" id="Rectangle-Copy-3"></path>
                        <ellipse id="Oval" transform="translate(21.789474, 8.500000) rotate(15.000000) translate(-21.789474, -8.500000) " cx="21.7894737" cy="8.5" rx="1" ry="1"></ellipse>
                    </g>
                </g>
                <g id="Group-3" filter="url(#filter-1)" transform="translate(36.000000, 80.000000)" stroke-width="2">
                    <polyline id="Path-Copy-7" points="0 8 8 0 16 8"></polyline>
                    <polyline id="Path-Copy-6" transform="translate(8.000000, 58.000000) scale(1, -1) translate(-8.000000, -58.000000) " points="0 62 8 54 16 62"></polyline>
                    <line x1="8" y1="2.21641791" x2="8" y2="59.7835821" id="Line-Copy-3" stroke-linecap="square"></line>
                </g>
                <g id="Group-2" transform="translate(10.000000, 0.000000)" stroke-linecap="square" stroke-width="2">
                    <g id="Group">
                        <line x1="0.2" y1="0.1875" x2="10.2" y2="5.4375" id="Line-2"></line>
                        <line x1="11" y1="0.1875" x2="21.4" y2="5.4375" id="Line-2-Copy" transform="translate(16.200000, 2.812500) scale(-1, 1) translate(-16.200000, -2.812500) "></line>
                        <line x1="22.4" y1="0.375" x2="32.4" y2="5.625" id="Line-2-Copy-3"></line>
                        <line x1="33.2" y1="0.375" x2="43.6" y2="5.625" id="Line-2-Copy-2" transform="translate(38.400000, 3.000000) scale(-1, 1) translate(-38.400000, -3.000000) "></line>
                        <line x1="44.4" y1="0.375" x2="54.4" y2="5.625" id="Line-2-Copy-5"></line>
                        <line x1="55.2" y1="0.375" x2="65.6" y2="5.625" id="Line-2-Copy-4" transform="translate(60.400000, 3.000000) scale(-1, 1) translate(-60.400000, -3.000000) "></line>
                    </g>
                    <g id="Group-Copy" transform="translate(0.000000, 16.000000)">
                        <line x1="0.2" y1="0.1875" x2="10.2" y2="5.4375" id="Line-2"></line>
                        <line x1="11" y1="0.1875" x2="21.4" y2="5.4375" id="Line-2-Copy" transform="translate(16.200000, 2.812500) scale(-1, 1) translate(-16.200000, -2.812500) "></line>
                        <line x1="22.4" y1="0.375" x2="32.4" y2="5.625" id="Line-2-Copy-3"></line>
                        <line x1="33.2" y1="0.375" x2="43.6" y2="5.625" id="Line-2-Copy-2" transform="translate(38.400000, 3.000000) scale(-1, 1) translate(-38.400000, -3.000000) "></line>
                        <line x1="44.4" y1="0.375" x2="54.4" y2="5.625" id="Line-2-Copy-5"></line>
                        <line x1="55.2" y1="0.375" x2="65.6" y2="5.625" id="Line-2-Copy-4" transform="translate(60.400000, 3.000000) scale(-1, 1) translate(-60.400000, -3.000000) "></line>
                    </g>
                    <g id="Group-Copy-3" transform="translate(0.000000, 33.000000)">
                        <line x1="0.2" y1="0.1875" x2="10.2" y2="5.4375" id="Line-2"></line>
                        <line x1="11" y1="0.1875" x2="21.4" y2="5.4375" id="Line-2-Copy" transform="translate(16.200000, 2.812500) scale(-1, 1) translate(-16.200000, -2.812500) "></line>
                        <line x1="22.4" y1="0.375" x2="32.4" y2="5.625" id="Line-2-Copy-3"></line>
                        <line x1="33.2" y1="0.375" x2="43.6" y2="5.625" id="Line-2-Copy-2" transform="translate(38.400000, 3.000000) scale(-1, 1) translate(-38.400000, -3.000000) "></line>
                        <line x1="44.4" y1="0.375" x2="54.4" y2="5.625" id="Line-2-Copy-5"></line>
                        <line x1="55.2" y1="0.375" x2="65.6" y2="5.625" id="Line-2-Copy-4" transform="translate(60.400000, 3.000000) scale(-1, 1) translate(-60.400000, -3.000000) "></line>
                    </g>
                    <g id="Group-Copy-2" transform="translate(0.000000, 49.000000)">
                        <line x1="0.2" y1="0.1875" x2="10.2" y2="5.4375" id="Line-2"></line>
                        <line x1="11" y1="0.1875" x2="21.4" y2="5.4375" id="Line-2-Copy" transform="translate(16.200000, 2.812500) scale(-1, 1) translate(-16.200000, -2.812500) "></line>
                        <line x1="22.4" y1="0.375" x2="32.4" y2="5.625" id="Line-2-Copy-3"></line>
                        <line x1="33.2" y1="0.375" x2="43.6" y2="5.625" id="Line-2-Copy-2" transform="translate(38.400000, 3.000000) scale(-1, 1) translate(-38.400000, -3.000000) "></line>
                        <line x1="44.4" y1="0.375" x2="54.4" y2="5.625" id="Line-2-Copy-5"></line>
                        <line x1="55.2" y1="0.375" x2="65.6" y2="5.625" id="Line-2-Copy-4" transform="translate(60.400000, 3.000000) scale(-1, 1) translate(-60.400000, -3.000000) "></line>
                    </g>
                </g>
            </g>
        </g>
    </g>
</svg>