<?xml version="1.0" encoding="UTF-8"?>
<svg width="149px" height="146px" viewBox="0 0 149 146" version="1.1" xmlns="http://www.w3.org/2000/svg" xmlns:xlink="http://www.w3.org/1999/xlink">
    <!-- Generator: Sketch 63.1 (92452) - https://sketch.com -->
    <title>Fun</title>
    <desc>Created with Sketch.</desc>
    <g id="Page-1" stroke="none" stroke-width="1" fill="none" fill-rule="evenodd">
        <g id="Artboard" transform="translate(-539.000000, -346.000000)">
            <g id="Fun" transform="translate(542.000000, 350.000000)">
                <g id="Group" transform="translate(0.000000, 30.000000)" stroke="#B2FCFF">
                    <path d="M15.2077421,4.36540648 C24.7100237,-0.724405186 38.2320001,0.0409075512 54.3316009,0.0409075512 L55.8778333,0.0409517152 C71.7982743,0.0435856779 85.910574,0.167083715 95.2341997,5.37378033 C104.52335,10.5612242 109,20.9870699 109,30.8648467 C109,41.2759223 107.895763,54.8989417 97.8056887,61.5358194 C93.32803,64.4810578 87.949823,66.6982415 80.8546176,65.7901706 C76.275751,65.2041501 70.534947,61.7944326 65.3559712,61.5358194 C61.7095349,61.3537339 58.1535233,64.3850235 54.3315982,64.3850235 C50.5515618,64.3850235 47.1663511,60.8084958 43.458479,60.7537816 C38.8236065,60.6853884 35.6075816,63.4538182 31.7321536,64.3850235 C24.3177053,66.1666007 15.0101492,67.2481712 10.0032357,63.3700733 C1.70592559,56.9434034 0,40.1280626 0,30.8648467 C0,20.7078167 5.5126226,9.55850999 15.2077421,4.36540648 Z M55.435074,10.9479531 C14.6561059,10.9479531 11.3068071,20.130382 11.3068071,31.4574821 C11.3068071,40.9949003 13.6813394,48.5256699 38.7777348,50.665435 C41.3711992,47.4112367 43.1396913,44.8848259 44.083211,43.0862026 C45.1985433,40.9600545 45.8156158,38.6031797 45.9344284,36.0155783 C49.1583536,33.5632458 51.7454428,32.3370796 53.695696,32.3370796 C55.6459492,32.3370796 58.8092048,33.5632458 63.185463,36.0155783 C63.0658302,38.4212479 63.5235112,40.7781227 64.558506,43.0862026 C65.444295,45.0615476 67.0432425,47.6485304 69.3559867,50.847004 C95.2575023,49.0064927 96.0593267,41.511639 96.0838264,32.127171 L96.0838264,32.127171 L96.0838264,30.1020687 C96.0555347,19.2651014 94.990673,10.9479531 55.435074,10.9479531 Z" id="Combined-Shape" stroke-width="6" fill="#B2FCFF"></path>
                    <line x1="20.0205442" y1="30.8211339" x2="47.2705442" y2="17.3766894" id="Line" stroke-linecap="square"></line>
                    <line x1="35.1594331" y1="33.2655783" x2="49.0872109" y2="25.3211339" id="Line-3" stroke-linecap="square"></line>
                </g>
                <path d="M36.1423436,129.338449 L87.0068291,124.600875 C91.0181014,124.069044 93.8087322,123.26213 95.3787215,122.180132 C96.9487108,121.098135 98.5645054,118.86825 100.226105,115.490479 L131.291248,44.4132025 C132.529344,41.5564719 133.252141,39.1476574 133.459639,37.1867588 C133.667138,35.2258603 133.448071,32.8743256 132.80244,30.1321549 L127.718103,16.7067508 C125.189968,6.08315898 124.440736,0.526995624 125.470406,0.0382607691 C126.500077,-0.450474086 130.120157,3.74303668 136.330646,12.6187931 L142.537404,30.1321549 C143.004733,33.4702092 143.117979,36.069077 142.877143,37.9287584 C142.636308,39.7884398 141.809268,42.7013284 140.396026,46.6674242 L110.086285,115.490479 C108.071161,119.554222 106.270433,122.591021 104.684102,124.600875 C103.097771,126.610729 100.587333,129.036104 97.152789,131.876998 L38.2647552,138 C35.0148855,136.913411 33.2710608,135.884928 33.033281,134.91455 C32.7955012,133.944171 33.8318554,132.085471 36.1423436,129.338449 Z" id="Path-3" stroke="#001A83" stroke-width="6" fill="#B2FCFF"></path>
                <path d="M38.7816605,106.716064 C38.7787882,116.788319 45.8300479,124.951476 54.5310907,124.948986 C63.2321336,124.946496 70.2880517,116.779301 70.2909249,106.707047" id="Path" stroke="#001A83" stroke-width="6" fill="#B2FCFF" transform="translate(54.536293, 115.828017) rotate(-5.000000) translate(-54.536293, -115.828017) "></path>
            </g>
        </g>
    </g>
</svg>