<?xml version="1.0" encoding="UTF-8"?>
<svg width="158px" height="98px" viewBox="0 0 158 98" version="1.1" xmlns="http://www.w3.org/2000/svg" xmlns:xlink="http://www.w3.org/1999/xlink">
    <!-- Generator: Sketch 63.1 (92452) - https://sketch.com -->
    <title>Wreck</title>
    <desc>Created with Sketch.</desc>
    <g id="Page-1" stroke="none" stroke-width="1" fill="none" fill-rule="evenodd">
        <g id="Artboard" transform="translate(-23.000000, -366.000000)">
            <g id="Wreck" transform="translate(19.000000, 366.000000)">
                <g id="Group-4">
                    <path d="M92,0.5 C91.5857864,0.5 91.2107864,0.667893219 90.9393398,0.939339828 C90.6678932,1.21078644 90.5,1.58578644 90.5,2 L90.4989872,41.5 L88.3581093,41.5 C88.3789765,43.31709 88.3434856,44.6996721 88.2532209,45.6478379 C88.1854293,46.3599392 88.0648386,46.8675927 87.1601278,47.2169906 C86.9825982,47.2855522 86.8233281,47.3293079 86.5013979,46.8952881 C86.417019,46.616247 86.3491434,46.1983176 86.304959,45.6398907 C86.2300467,44.6931072 86.2167077,43.3131658 86.2665273,41.5 L84.5,41.5 L84.5,14 C84.5,13.5857864 84.3321068,13.2107864 84.0606602,12.9393398 C83.7892136,12.6678932 83.4142136,12.5 83,12.5 C82.5857864,12.5 82.2107864,12.6678932 81.9393398,12.9393398 C81.6678932,13.2107864 81.5,13.5857864 81.5,14 L81.5,41.5 L76.5,41.5 L76.5,51.5 L103.5,51.5 L103.5,41.5 L102.498971,41.5 L102.5,23.9999706 C102.5,23.5857864 102.332107,23.2107864 102.06066,22.9393398 C101.789214,22.6678932 101.414214,22.5 101,22.5 C100.585786,22.5 100.210786,22.6678932 99.9393398,22.9393398 C99.6678932,23.2107864 99.5,23.5857864 99.5,24 L99.4989706,41.5 L93.5,41.5 L93.5,2 C93.5,1.58578644 93.3321068,1.21078644 93.0606602,0.939339828 C92.7892136,0.667893219 92.4142136,0.5 92,0.5 Z" id="Combined-Shape-Copy" stroke="#3E64FF" fill="#3E64FF"></path>
                    <path d="M147.5,15.494086 C145.460428,15.494086 142.461351,16.2635318 138.499992,17.7790472 L138.499639,33.4990479 L126.499989,33.4999619 L126.499775,43.1348381 C120.497874,38.0378271 115.167245,33.6143339 111.37209,32.1527192 C100.597888,28.0032888 86.3927836,26.5132722 68.7608139,27.6624187 C67.8492589,33.4673548 68.8088647,39.5563502 71.65611,46.0355392 C72.204857,48.8323966 74.0539251,52.420532 77.1756485,56.809722 C77.776459,57.6544707 78.5396151,58.5254676 79.587347,59.6260638 C80.7699546,60.9359694 82.0706214,62.1349129 83.4597843,63.3310958 C86.1773122,65.8719747 89.331732,68.8222575 92.4849235,72.4448432 C94.2983064,74.528172 96.7663278,78.2811201 99.8832055,83.7081438 L160.43571,89.4325275 L160.435649,62.4986564 L161.477877,62.4995514 L160.448401,38.7089334 L156.499644,36.5602413 L156.499994,17.7790418 C152.538642,16.26353 149.53957,15.494086 147.5,15.494086 Z" id="Combined-Shape" stroke="#B2FCFF" fill="#B2FCFF"></path>
                    <path d="M134,46.5 C133.585786,46.5 133.210786,46.6678932 132.93934,46.9393398 C132.667893,47.2107864 132.5,47.5857864 132.5,48 L132.498987,87.5 L130.358109,87.5 C130.378977,89.31709 130.343486,90.6996721 130.253221,91.6478379 C130.185429,92.3599392 130.064839,92.8675927 129.160128,93.2169906 C128.982598,93.2855522 128.823328,93.3293079 128.501398,92.8952881 C128.417019,92.616247 128.349143,92.1983176 128.304959,91.6398907 C128.230047,90.6931072 128.216708,89.3131658 128.266527,87.5 L126.5,87.5 L126.5,60 C126.5,59.5857864 126.332107,59.2107864 126.06066,58.9393398 C125.789214,58.6678932 125.414214,58.5 125,58.5 C124.585786,58.5 124.210786,58.6678932 123.93934,58.9393398 C123.667893,59.2107864 123.5,59.5857864 123.5,60 L123.5,87.5 L118.5,87.5 L118.5,97.5 L145.5,97.5 L145.5,87.5 L144.498971,87.5 L144.5,69.9999706 C144.5,69.5857864 144.332107,69.2107864 144.06066,68.9393398 C143.789214,68.6678932 143.414214,68.5 143,68.5 C142.585786,68.5 142.210786,68.6678932 141.93934,68.9393398 C141.667893,69.2107864 141.5,69.5857864 141.5,70 L141.498971,87.5 L135.5,87.5 L135.5,48 C135.5,47.5857864 135.332107,47.2107864 135.06066,46.9393398 C134.789214,46.6678932 134.414214,46.5 134,46.5 Z" id="Combined-Shape" stroke="#3E64FF" fill="#3E64FF"></path>
                    <g id="Group-2-Copy" transform="translate(28.000000, 56.000000) rotate(-18.000000) translate(-28.000000, -56.000000) translate(3.000000, 44.000000)" fill="#B2FCFF" stroke="#B2FCFF">
                        <path d="M45.0818423,8.26541429 C44.0865275,7.92769013 43.054464,8.04370723 42.1903814,8.50348373 C41.3182084,8.96756513 40.6177802,9.78053985 40.2916064,10.8288711 C39.9634038,11.8837236 40.075329,12.9777173 40.5222387,13.8936837 C40.965296,14.8017545 41.7385401,15.535592 42.7407093,15.8756419 C44.2554275,16.3896069 45.8426974,15.8541434 47.6019608,14.7121245 C47.9066178,14.8069143 48.2212238,14.767825 48.484837,14.6139754 C48.7521647,14.4579579 48.9636966,14.1879055 49.0762832,13.8332728 C49.1382156,13.5315867 49.0814786,13.2273803 48.9151097,12.9686423 C48.738785,12.6944211 48.4449505,12.4746205 47.7165156,11.8903446 C47.6810454,11.0676853 47.4027934,10.2808003 46.9323519,9.63580263 C46.4792098,9.01452323 45.847134,8.52508843 45.0818423,8.26541429 Z" id="Combined-Shape"></path>
                        <path d="M24.886455,10.351224 C24.3687758,10.2167763 23.8449862,10.3029923 23.4146213,10.5557644 C22.9837123,10.808856 22.6471823,11.228405 22.5007526,11.7585236 C22.3722594,12.2535112 22.4577747,12.7612627 22.701518,13.1760292 C22.9452614,13.5907958 23.3472328,13.9125774 23.8496589,14.0430637 L35.882217,17.1680685 C36.3998963,17.3025162 36.9236859,17.2163003 37.3540508,16.9635282 C37.7849598,16.7104366 38.1214898,16.2908875 38.2679195,15.760769 C38.3964126,15.2657814 38.3108974,14.7580299 38.067154,14.3432633 C37.8234107,13.9284968 37.4214392,13.6067152 36.9190131,13.4762289 L24.886455,10.351224 Z" id="Rectangle"></path>
                        <path d="M14.5929173,5.78946305 C14.414725,5.58994327 14.1610953,5.47623636 13.9018207,5.46143938 C13.6425461,5.4466424 13.3776267,5.53075534 13.1685171,5.71728547 C12.9471426,5.91475614 12.8246516,6.18246293 12.8054464,6.45738494 C12.7862412,6.73230695 12.8703218,7.01444419 13.0620908,7.24077578 L19.0027153,14.2513226 C19.1809075,14.4508424 19.4345372,14.5645493 19.6938118,14.5793463 C19.9530864,14.5941433 20.2180059,14.5100303 20.4271155,14.3235002 C20.6484899,14.1260295 20.770981,13.8583227 20.7901862,13.5834007 C20.8093913,13.3084787 20.7253107,13.0263415 20.5335417,12.8000099 L14.5929173,5.78946305 Z" id="Rectangle-Copy-2" transform="translate(16.797816, 10.020393) rotate(-30.000000) translate(-16.797816, -10.020393) "></path>
                        <path d="M37.7678598,15.9611225 C37.5557336,15.8139881 37.2997988,15.7659465 37.06038,15.8092402 C36.8209612,15.8525338 36.5980583,15.9871627 36.4484198,16.202865 C36.2957044,16.4230028 36.2459786,16.6841149 36.2891304,16.9288509 C36.3322822,17.1735869 36.4683116,17.4019467 36.6871066,17.5565798 L43.6390442,22.469787 C43.8511704,22.6169214 44.1071052,22.664963 44.346524,22.6216693 C44.5859428,22.5783757 44.8088457,22.4437468 44.9584841,22.2280444 C45.1111995,22.0079067 45.1609253,21.7467946 45.1177735,21.5020586 C45.0746217,21.2573226 44.9385923,21.0289628 44.7197974,20.8743297 L37.7678598,15.9611225 Z" id="Rectangle-Copy-4"></path>
                        <path d="M5.86183768,2.72706123 L2.76785533,4.8239748 L8.00428943,10.3548466 L9.18972745,9.55142863 L5.86183768,2.72706123 Z" id="Rectangle" transform="translate(5.914652, 6.498377) rotate(-38.000000) translate(-5.914652, -6.498377) "></path>
                        <g id="Group-3" transform="translate(31.890481, 8.747873) rotate(-2.000000) translate(-31.890481, -8.747873) translate(24.890481, 4.747873)">
                            <path d="M3.16591359,1.12069796 C2.69738404,1.00863282 2.22728551,1.09553556 1.84495972,1.32725749 C1.45990634,1.56063259 1.16388255,1.94090059 1.04815592,2.41274561 C0.922703511,2.92424491 1.00968531,3.4398043 1.25439214,3.86447911 C1.49909897,4.28915391 1.90153082,4.62294414 2.40697854,4.77090512 L9.3895715,6.81263537 C9.85810106,6.92470051 10.3281996,6.83779778 10.7105254,6.60607584 C11.0955788,6.37270075 11.3916025,5.99243274 11.5073292,5.52058772 C11.6327816,5.00908842 11.5457998,4.49352903 11.301093,4.06885423 C11.0563861,3.64417942 10.6539543,3.3103892 10.1485066,3.16242822 L3.16591359,1.12069796 Z" id="Rectangle"></path>
                            <path d="M12.2351925,5.29842117 C12.1682454,5.34001969 12.1171676,5.40715767 12.0978272,5.48997519 C12.074074,5.59168918 12.0938473,5.69385056 12.1619918,5.78167628 C12.2606132,5.90878102 12.4296265,6.00458476 12.6564019,6.07600644 C12.7347847,6.09078799 12.8123937,6.0742967 12.8757777,6.03491217 C12.9427248,5.99331365 12.9938026,5.92617567 13.013143,5.84335815 C13.0368962,5.74164416 13.0171229,5.63948278 12.9489784,5.55165706 C12.850357,5.42455231 12.6813437,5.32874858 12.2351925,5.29842117 Z" id="Rectangle-Copy-3"></path>
                            <ellipse id="Oval" transform="translate(13.126189, 5.100000) rotate(15.000000) translate(-13.126189, -5.100000) " cx="13.126189" cy="5.1" rx="1" ry="1"></ellipse>
                        </g>
                    </g>
                </g>
            </g>
        </g>
    </g>
</svg>