<?xml version="1.0" encoding="UTF-8"?>
<svg width="83px" height="176px" viewBox="0 0 83 176" version="1.1" xmlns="http://www.w3.org/2000/svg" xmlns:xlink="http://www.w3.org/1999/xlink">
    <!-- Generator: Sketch 63.1 (92452) - https://sketch.com -->
    <title>Drift</title>
    <desc>Created with Sketch.</desc>
    <g id="Page-1" stroke="none" stroke-width="1" fill="none" fill-rule="evenodd">
        <g id="Artboard" transform="translate(-328.000000, -71.000000)" fill="#B2FCFF" stroke="#B2FCFF">
            <g id="Drift" transform="translate(328.000000, 71.000000)">
                <path d="M69.6061764,40.9868269 L8.44127909,21.1170528 C7.38046411,20.7138121 6.56080515,19.9354745 6.0938228,18.9554179 C5.64388584,18.0111345 5.52065725,16.8771682 5.84331726,15.6869683 C6.10422422,14.8843808 6.57556139,14.2090282 7.17616555,13.7018476 C7.65714913,13.2956807 8.22120892,12.9975278 8.8267701,12.8284981 L8.66731573,12.1842813 C9.72207094,11.7547517 10.5786844,11.185649 11.1030208,10.5521255 C11.4780973,10.0989437 11.6847936,9.61405054 11.5998672,9.13264972 C11.542715,8.80868605 11.3580606,8.52666464 11.0881349,8.28546889 C10.7596206,7.99192057 10.3095432,7.75977877 9.77691783,7.58928183 C8.64795585,7.22789353 7.16140537,7.15016592 5.58619496,7.42777909 C4.01100531,7.70538865 2.64071899,8.28659108 1.70351715,9.01211075 C1.26138642,9.35437911 0.917909459,9.7263514 0.70967078,10.1144727 C0.538575581,10.4333649 0.461575825,10.7614726 0.518722203,11.0854037 C0.608604401,11.594896 1.00519035,11.9959648 1.55978543,12.2995967 C2.3173814,12.7143684 3.37549287,12.9432713 4.57059569,12.9565446 L5.47402352,16.5731344 C3.96875369,18.38256 3.33620324,20.8707528 3.99317982,23.3169673 L10.8654971,48.9519782 C11.4424127,51.1000882 12.8956988,52.7793673 14.7374065,53.7080115 L32.4549026,124.737974 C30.0307894,127.379422 28.0935149,129.662391 26.6438124,131.587479 C24.7094712,134.156128 22.0557253,138.482322 18.6796485,144.564053 C15.1773041,152.859782 12.8698597,158.78662 11.7588244,162.343866 C10.6917258,165.760437 9.75891002,169.933107 8.95880211,174.861484 L75.5146784,174.861484 C79.767113,171.083503 82.0946125,167.08136 82.4515009,162.835317 C82.8129152,158.535427 81.1545789,154.007008 77.5270843,149.238716 C70.327988,139.775603 56.5577774,130.961497 36.2478272,122.761588 L19.5801881,54.3824725 L69.6061764,40.9868269 Z M68.4290547,6.06055441 C67.891995,4.06084527 66.5954707,2.46739596 64.9330977,1.50762453 C63.2707247,0.547853099 61.242495,0.221754868 59.2419474,0.756560757 L12.938719,13.3997437 L74.1462855,33.2849168 C74.6771684,33.4919649 75.1466797,33.7935402 75.5416852,34.1638827 C75.5983426,33.3549541 75.5235552,32.5228517 75.301372,31.6955653 L68.4290547,6.06055441 Z" id="Combined-Shape"></path>
            </g>
        </g>
    </g>
</svg>