<?xml version="1.0" encoding="UTF-8"?>
<svg width="98px" height="101px" viewBox="0 0 98 101" version="1.1" xmlns="http://www.w3.org/2000/svg" xmlns:xlink="http://www.w3.org/1999/xlink">
    <!-- Generator: Sketch 63.1 (92452) - https://sketch.com -->
    <title>Ice</title>
    <desc>Created with Sketch.</desc>
    <g id="Page-1" stroke="none" stroke-width="1" fill="none" fill-rule="evenodd">
        <g id="Artboard" transform="translate(-503.000000, -122.000000)">
            <g id="Ice" transform="translate(504.000000, 122.000000)">
                <path d="M54.3686519,0.693432143 L40.238135,15.0695715 L32.3527457,9.0053738 L12.1507527,28.5249675 L38.1528279,89.0085348 L43.6506384,78.4401085 L51.7938163,99.3679152 L71.2109362,57.11566 L84.9857235,28.52434 L54.3686519,0.693432143 Z" id="Rectangle" stroke="#B2FCFF" fill="#B2FCFF"></path>
                <g id="Group" transform="translate(0.000000, 26.889043)" stroke="#3E64FF">
                    <path d="M1.66977543e-13,5.69410413 C0.876550709,4.70963168 1.72929425,3.89811829 2.55823061,3.25956394 C3.63551301,2.42970127 4.86453216,2.09996996 5.55405997,1.9949371 C7.17451406,1.74810017 8.71191552,2.33101993 10.1662643,3.74369639" id="Path-4"></path>
                    <path d="M16.9664381,3.38838942 C17.0332628,3.31448337 17.4811433,2.95825318 18.3100797,2.31969883 C19.084929,1.72280935 19.9382777,1.38465743 20.6129178,1.20275368 C20.876238,1.13175444 21.112333,1.08455861 21.305909,1.05507199 C21.8397268,0.973757785 22.3728206,0.935174342 22.8997292,0.970495139 C23.5130037,1.01160539 24.1178993,1.15283279 24.705805,1.44332966 C25.1461034,1.66089055 25.5768723,1.96217538 25.9944948,2.36783139" id="Path-4-Copy-2" transform="translate(21.480466, 2.172881) scale(-1, 1) translate(-21.480466, -2.172881) "></path>
                    <path d="M10.0428194,4.85684114 C10.9954622,3.84229524 11.8520898,3.13462713 12.612702,2.7338368 C14.1702612,1.91311027 15.6591792,2.16403887 17.0794561,3.48662261" id="Path-4-Copy" transform="translate(13.561138, 3.559632) scale(-1, -1) translate(-13.561138, -3.559632) "></path>
                    <path d="M24.3353581,4.85737601 C24.9347457,4.34963321 25.6489076,3.77648464 26.477844,3.1379303 C27.0398985,2.70496297 27.702464,2.57499278 28.2489583,2.3751863 C28.7499223,2.19202638 29.262316,2.13003878 29.5920939,2.07980511 C30.0610945,2.00836423 30.5279234,2.1444696 30.9830099,2.21204128 C31.5860029,2.30157428 32.1767817,2.51313565 32.7553464,2.8467254 C33.2488108,3.13124789 33.7333899,3.50454088 34.2090837,3.96660436" id="Path-4-Copy-5" transform="translate(29.272221, 3.458506) scale(1, -1) translate(-29.272221, -3.458506) "></path>
                    <path d="M40.0428194,4.79686566 C40.4435722,4.26787066 41.0584167,3.68409599 41.8873531,3.04554165 C42.3517732,2.68778507 42.8443935,2.42297796 43.3098325,2.22905245 C43.9240395,1.97314266 44.4909124,1.84066765 44.8831825,1.7809148 C45.4829492,1.68955487 46.0818021,1.65213598 46.6719954,1.71287148 C47.6763907,1.81623159 48.6557068,2.2038613 49.5717682,3.09367421" id="Path-4-Copy-4" transform="translate(44.807294, 3.240041) scale(-1, -1) translate(-44.807294, -3.240041) "></path>
                    <path d="M33.9606791,4.28607933 C35.0243187,3.47709326 35.9364446,2.87220507 36.6970568,2.47141474 C37.2557627,2.17701518 37.8162055,2.01427609 38.370803,1.98766654 C38.7982395,1.96715816 39.2222038,2.02751093 39.6392247,2.17077079 C40.1895514,2.35982539 40.7277861,2.69326335 41.2459512,3.17578669" id="Path-4-Copy-3" transform="translate(37.603315, 3.134924) scale(-1, 1) translate(-37.603315, -3.134924) "></path>
                    <path d="M47.5141581,3.45850605 C47.4098163,3.32618342 47.7721137,2.94074493 48.60105,2.30219058 C49.6783324,1.47232791 50.9073516,1.1425966 51.5968794,1.03756374 C52.2919167,0.931691646 52.9716749,0.978468389 53.6361541,1.17789397 C54.5208839,1.44342187 55.3785271,1.97956489 56.2090837,2.78632303" id="Path-4-Copy-11"></path>
                    <path d="M63.0092575,2.43101606 C63.0760822,2.35711001 63.5239627,2.00087982 64.3528991,1.36232547 C65.1277484,0.765435991 65.9810971,0.427284072 66.6557372,0.24538032 C66.9190574,0.174381083 67.1551524,0.127185245 67.3487284,0.0976986304 C67.8825462,0.0163844243 68.41564,-0.0221990182 68.9425486,0.0131217792 C69.5558231,0.0542320254 70.1607187,0.195459429 70.7486244,0.485956305 C71.1889228,0.703517188 71.6196918,1.00480202 72.0373142,1.41045803" id="Path-4-Copy-10" transform="translate(67.523286, 1.215508) scale(-1, 1) translate(-67.523286, -1.215508) "></path>
                    <path d="M56.0856388,3.89946778 C57.0382816,2.88492188 57.8949092,2.17725377 58.6555214,1.77646344 C60.2130806,0.95573691 61.7019987,1.20666551 63.1222755,2.52924925" id="Path-4-Copy-9" transform="translate(59.603957, 2.602258) scale(-1, -1) translate(-59.603957, -2.602258) "></path>
                    <path d="M70.3781775,3.90000265 C70.9775651,3.39225985 71.691727,2.81911128 72.5206634,2.18055694 C73.0827179,1.74758961 73.7452834,1.61761942 74.2917777,1.41781294 C74.7927417,1.23465302 75.3051354,1.17266542 75.6349133,1.12243175 C76.1039139,1.05099087 76.5707428,1.18709624 77.0258293,1.25466792 C77.6288223,1.34420092 78.2196011,1.55576229 78.7981658,1.88935204 C79.2916302,2.17387453 79.7762093,2.54716752 80.2519032,3.009231" id="Path-4-Copy-8" transform="translate(75.315040, 2.501133) scale(1, -1) translate(-75.315040, -2.501133) "></path>
                    <path d="M86.0856388,3.8394923 C86.9621895,2.85501985 87.8149331,2.04350646 88.6438694,1.40495211 C89.7211518,0.575089436 90.950171,0.24535813 91.6396988,0.14032527 C93.2601529,-0.106511661 94.8739357,0.0404082178 96.3282845,1.45308467" id="Path-4-Copy-7" transform="translate(91.206962, 1.941059) scale(-1, -1) translate(-91.206962, -1.941059) "></path>
                    <path d="M80.0034986,3.32870597 C81.0671381,2.5197199 81.979264,1.91483171 82.7398763,1.51404138 C83.2985821,1.21964182 83.859025,1.05690273 84.4136224,1.03029318 C84.8410589,1.0097848 85.2650232,1.07013757 85.6820442,1.21339743 C86.2323708,1.40245203 86.7706055,1.73588999 87.2887706,2.21841333" id="Path-4-Copy-6" transform="translate(83.646135, 2.177551) scale(-1, 1) translate(-83.646135, -2.177551) "></path>
                </g>
                <line x1="5.5" y1="49.3890433" x2="48.5" y2="49.3890433" id="Line-4" stroke="#3E64FF" stroke-linecap="square"></line>
                <line x1="49.5" y1="65.3890433" x2="80.5" y2="65.3890433" id="Line" stroke="#3E64FF" stroke-linecap="square"></line>
                <line x1="57.5" y1="49.3890433" x2="65.5" y2="49.3890433" id="Line-2" stroke="#3E64FF" stroke-linecap="square"></line>
            </g>
        </g>
    </g>
</svg>