<?xml version="1.0" encoding="UTF-8"?>
<svg width="112px" height="112px" viewBox="0 0 112 112" version="1.1" xmlns="http://www.w3.org/2000/svg" xmlns:xlink="http://www.w3.org/1999/xlink">
    <!-- Generator: Sketch 63.1 (92452) - https://sketch.com -->
    <title>Group 5</title>
    <desc>Created with Sketch.</desc>
    <g id="Page-1" stroke="none" stroke-width="1" fill="none" fill-rule="evenodd">
        <g id="Artboard" transform="translate(-299.000000, -366.000000)">
            <g id="Group-5" transform="translate(299.000000, 366.000000)">
                <path d="M76,0.5 L36,0.5 C33.9289322,0.5 32.0539322,1.33946609 30.6966991,2.69669914 C29.3394661,4.05393219 28.5,5.92893219 28.5,8 L28.5,28.5 L8,28.5 C5.92893219,28.5 4.05393219,29.3394661 2.69669914,30.6966991 C1.33946609,32.0539322 0.5,33.9289322 0.5,36 L0.5,76 C0.5,78.0710678 1.33946609,79.9460678 2.69669914,81.3033009 C4.05393219,82.6605339 5.92893219,83.5 8,83.5 L28.5,83.5 L28.5,104 C28.5,106.071068 29.3394661,107.946068 30.6966991,109.303301 C32.0539322,110.660534 33.9289322,111.5 36,111.5 L76,111.5 C78.0710678,111.5 79.9460678,110.660534 81.3033009,109.303301 C82.6605339,107.946068 83.5,106.071068 83.5,104 L83.5,83.5 L104,83.5 C106.071068,83.5 107.946068,82.6605339 109.303301,81.3033009 C110.660534,79.9460678 111.5,78.0710678 111.5,76 L111.5,36 C111.5,33.9289322 110.660534,32.0539322 109.303301,30.6966991 C107.946068,29.3394661 106.071068,28.5 104,28.5 L83.5,28.498975 L83.5,8 C83.5,5.92893219 82.6605339,4.05393219 81.3033009,2.69669914 C79.9460678,1.33946609 78.0710678,0.5 76,0.5 Z" id="Combined-Shape" stroke="#3E64FF" fill="#3E64FF"></path>
                <g id="Group-2-Copy-3" transform="translate(55.500000, 91.000000) scale(1, -1) rotate(-18.000000) translate(-55.500000, -91.000000) translate(16.000000, 72.000000)" fill="#B2FCFF" stroke="#B2FCFF">
                    <path d="M71.3694144,13.283584 C69.6920644,12.7303116 67.9526241,12.9197911 66.4962666,13.6731462 C65.0371082,14.4279502 63.8623499,15.748381 63.3163531,17.4542778 C62.7696837,19.1624907 62.9566152,20.9340017 63.7010138,22.4172217 C64.4440187,23.8976645 65.7427806,25.0911378 67.4224819,25.6452538 C68.6416926,26.0474094 69.8937603,26.0573508 71.0460425,25.7432167 C72.3391383,25.390694 73.5065458,24.6306529 74.3615818,23.5602746 L75.2357107,23.8472421 C75.7936417,24.0257902 76.3751868,23.9584686 76.8634995,23.6868434 C77.3489606,23.4168046 77.7395413,22.9473349 77.9394464,22.3276088 C78.075252,21.7759901 77.98254,21.2142909 77.67437,20.7364979 C77.3627803,20.2534031 76.8380269,19.8602883 75.7845219,19.1730311 C75.7254126,17.8395129 75.2607539,16.5643084 74.4764583,15.518883 C73.715747,14.5048941 72.6538782,13.7073153 71.3694144,13.283584 Z" id="Combined-Shape"></path>
                    <path d="M39.26521,15.9637221 C38.385875,15.7353479 37.4961867,15.8818857 36.7651848,16.3112349 C36.0354624,16.7398327 35.4645914,17.4497371 35.2165404,18.3477548 C34.996273,19.1961112 35.1419332,20.060977 35.5571073,20.7674592 C35.9722815,21.4739414 36.6569695,22.02204 37.5127644,22.2443006 L56.230077,27.1054193 C57.109412,27.3337935 57.9991003,27.1872557 58.7301022,26.7579065 C59.4598246,26.3293087 60.0306956,25.6194043 60.2787466,24.7213866 C60.4990141,23.8730302 60.3533538,23.0081644 59.9381797,22.3016822 C59.5230056,21.5952 58.8383176,21.0471014 57.9825226,20.8248408 L39.26521,15.9637221 Z" id="Rectangle"></path>
                    <path d="M23.2880113,8.99043268 C22.9398756,8.60318927 22.4680214,8.39275992 21.9858264,8.36554389 C21.5016892,8.33821825 21.0071277,8.49558471 20.6168947,8.84412015 C20.2074136,9.20984706 19.9808245,9.70537314 19.945265,10.2142481 C19.9097055,10.7231231 20.0651755,11.2453469 20.4198124,11.6644694 L29.7930881,22.7408113 C30.1412238,23.1280547 30.613078,23.3384841 31.0952731,23.3657001 C31.5794102,23.3930257 32.0739718,23.2356593 32.4642047,22.8871238 C32.8736859,22.5213969 33.1002749,22.0258708 33.1358344,21.5169959 C33.1713939,21.0081209 33.0159239,20.485897 32.661287,20.0667746 L23.2880113,8.99043268 Z" id="Rectangle-Copy-2" transform="translate(26.540550, 15.865622) rotate(-30.000000) translate(-26.540550, -15.865622) "></path>
                    <path d="M60.0273941,24.809695 C59.6382741,24.541572 59.1700858,24.4551646 58.7326023,24.5356515 C58.2951187,24.6161385 57.8883399,24.8635198 57.6159606,25.2587179 C57.3359698,25.6649599 57.2449677,26.1459685 57.3244725,26.5969156 C57.4039773,27.0478627 57.653989,27.4687484 58.0560258,27.7547446 L68.8028821,35.3994142 C69.192002,35.6675373 69.6601903,35.7539447 70.0976739,35.6734578 C70.5351575,35.5929708 70.9419363,35.3455895 71.2143155,34.9503913 C71.4943064,34.5441494 71.5853085,34.0631408 71.5058037,33.6121937 C71.4262989,33.1612466 71.1762872,32.7403609 70.7742504,32.4543647 L60.0273941,24.809695 Z" id="Rectangle-Copy-4"></path>
                    <path d="M9.38220532,3.89489073 L3.92457688,7.59864092 L12.5999154,16.7674871 L14.8899949,15.2133538 L9.38220532,3.89489073 Z" id="Rectangle" transform="translate(9.343139, 10.288449) rotate(-38.000000) translate(-9.343139, -10.288449) "></path>
                    <g id="Group-3" transform="translate(50.332813, 14.019457) rotate(-2.000000) translate(-50.332813, -14.019457) translate(39.332813, 7.519457)">
                        <path d="M5.07951914,1.49349113 C4.25871851,1.29560243 3.43488542,1.44750894 2.76536491,1.85374136 C2.09298138,2.26171092 1.57623299,2.92618616 1.37449193,3.75046778 C1.15763532,4.63650912 1.30844687,5.52946831 1.73229961,6.26511009 C2.15615236,7.00075187 2.85304629,7.57907624 3.72835443,7.83584796 L14.7581473,11.06762 C15.5789479,11.2655087 16.402781,11.1136022 17.0723015,10.7073697 C17.7446851,10.2994002 18.2614335,9.63492496 18.4631745,8.81064333 C18.6800311,7.92460199 18.5292196,7.0316428 18.1053668,6.29600102 C17.6815141,5.56035924 16.9846202,4.98203487 16.109312,4.72526315 L5.07951914,1.49349113 Z" id="Rectangle"></path>
                        <path d="M19.7514626,8.04165023 C19.5472401,7.99813187 19.3439549,8.0393123 19.1789104,8.14197175 C19.0098836,8.24710817 18.880965,8.41672612 18.8322183,8.62590558 C18.7747359,8.87257141 18.8223009,9.12043282 18.9871494,9.33344055 C19.173935,9.5747942 19.4887778,9.76739516 19.9238703,9.90279421 C20.1280928,9.94631257 20.331378,9.90513214 20.4964226,9.80247269 C20.6654493,9.69733628 20.7943679,9.52771832 20.8431146,9.31853886 C20.900597,9.07187304 20.853032,8.82401163 20.6881835,8.6110039 C20.5013979,8.36965025 20.1865551,8.17704929 19.7514626,8.04165023 Z" id="Rectangle-Copy-3"></path>
                        <ellipse id="Oval" transform="translate(20.739379, 8.075000) rotate(15.000000) translate(-20.739379, -8.075000) " cx="20.7393786" cy="8.075" rx="1" ry="1"></ellipse>
                    </g>
                </g>
                <g id="Group-2-Copy-2" transform="translate(18.000000, 10.000000)" fill="#B2FCFF" stroke="#B2FCFF">
                    <path d="M64.4310329,23.8434402 C62.6415067,23.2481535 60.7857694,23.4520689 59.2320511,24.2625638 C57.6739669,25.0753361 56.4199491,26.4974295 55.8370007,28.334248 C55.2529159,30.1746467 55.4525482,32.0832416 56.2478429,33.6812326 C57.0409933,35.2749149 58.4271633,36.5600494 60.2203678,37.1565598 C61.5211775,37.5892747 62.8570306,37.5999467 64.0863973,37.2619115 C65.4601224,36.8841826 66.7007893,36.0717123 67.6121297,34.9280434 L68.5171155,35.2285084 C69.1182301,35.4192373 69.7466611,35.3449676 70.2737185,35.0507944 C70.797073,34.7586879 71.2178069,34.2521566 71.4312402,33.5843168 C71.5803278,32.9812538 71.4799931,32.3670973 71.1467874,31.8448934 C70.8119516,31.3201347 70.24847,30.8923234 69.1445447,30.1861751 C69.0814488,28.7496482 68.5852335,27.3758744 67.747414,26.2496735 C66.9354449,25.158221 65.8021178,24.2995323 64.4310329,23.8434402 Z" id="Combined-Shape"></path>
                    <path d="M30.920656,28.4966662 C29.9689898,28.2495066 29.0061218,28.4081087 28.2149925,28.8727734 C27.4255074,29.3364724 26.8077683,30.104448 26.539393,31.0760454 C26.3007707,31.9950756 26.4584599,32.9313643 26.9079202,33.6961896 C27.3573805,34.4610149 28.0986118,35.054377 29.0250805,35.2949924 L49.079344,40.5033338 C50.0310102,40.7504934 50.9938782,40.5918913 51.7850075,40.1272266 C52.5744926,39.6635276 53.1922317,38.895552 53.460607,37.9239546 C53.6992293,37.0049244 53.5415401,36.0686357 53.0920798,35.3038104 C52.6426195,34.5389851 51.9013882,33.945623 50.9749195,33.7050076 L30.920656,28.4966662 Z" id="Rectangle"></path>
                    <path d="M23.2283328,26.7873304 C22.784523,26.5439726 22.2839458,26.50022 21.83102,26.6268736 C21.3717702,26.7552955 20.9615117,27.0589153 20.7090986,27.5072937 C20.4115026,28.0359336 20.3394699,28.63439 20.4664562,29.1871233 C20.5934425,29.7398566 20.9194479,30.2468667 21.4179278,30.5926141 L23.7716672,32.2126696 C24.215477,32.4560274 24.7160542,32.49978 25.16898,32.3731264 C25.6282298,32.2447045 26.0384883,31.9410847 26.2909014,31.4927063 C26.5884974,30.9640664 26.6605301,30.36561 26.5335438,29.8128767 C26.4065575,29.2601434 26.0805521,28.7531333 25.5820722,28.4073859 L23.2283328,26.7873304 Z" id="Rectangle-Copy"></path>
                    <path d="M15.1071803,15.2524993 C14.7362742,14.8403507 14.2337233,14.6165584 13.7202709,14.5878688 C13.204785,14.5590655 12.6783111,14.7269136 12.2630325,15.0982399 C11.8267392,15.4883569 11.585299,16.0166586 11.5473768,16.5591862 C11.5094545,17.1017137 11.6750501,17.6584669 12.0528281,18.1054869 L21.8928197,29.7475007 C22.2637258,30.1596493 22.7662767,30.3834416 23.2797291,30.4121312 C23.795215,30.4409345 24.3216889,30.2730864 24.7369675,29.9017601 C25.1732608,29.5116431 25.414701,28.9833414 25.4526232,28.4408138 C25.4905455,27.8982863 25.3249499,27.3415331 24.9471719,26.8945131 L15.1071803,15.2524993 Z" id="Rectangle-Copy-2"></path>
                    <path d="M51.639049,37.8036976 C51.1828038,37.4925608 50.6437417,37.3925228 50.135314,37.4883513 C49.6261203,37.5843242 49.1489468,37.8763412 48.8126321,38.3446366 C48.5228014,38.7699011 48.4305083,39.2842212 48.5212201,39.763936 C48.611932,40.2436507 48.8856488,40.68876 49.3208697,40.9855592 L61.360951,49.1963024 C61.8171962,49.5074392 62.3562583,49.6074772 62.864686,49.5116487 C63.3738797,49.4156758 63.8510532,49.1236588 64.1873679,48.6553634 C64.4771986,48.2300989 64.5694917,47.7157788 64.4787799,47.236064 C64.388068,46.7563493 64.1143512,46.31124 63.6791303,46.0144408 L51.639049,37.8036976 Z" id="Rectangle-Copy-4"></path>
                    <path d="M6.5590155,0.738469944 L0.766990228,4.67384063 L9.91464125,14.3473061 L12.3613151,12.6849223 L6.5590155,0.738469944 Z" id="Rectangle"></path>
                    <g id="Group-3" transform="translate(41.829858, 25.917123) rotate(-2.000000) translate(-41.829858, -25.917123) translate(30.329858, 18.917123)">
                        <path d="M5.34583776,1.54759954 C4.47565227,1.33809735 3.60238946,1.49946943 2.89284923,1.93040965 C2.18038117,2.36312809 1.63298964,3.06764393 1.41954787,3.94139177 C1.18995447,4.88125815 1.35005872,5.82835286 1.79962172,6.60868542 C2.24918471,7.38901797 2.98820645,8.00258837 3.91644802,8.27540613 L15.4962675,11.6746227 C16.366453,11.8841249 17.2397158,11.7227528 17.949256,11.2918126 C18.6617241,10.8590941 19.2091156,10.1545783 19.4225574,9.28083046 C19.6521508,8.34096408 19.4920465,7.39386936 19.0424835,6.61353681 C18.5929205,5.83320425 17.8538988,5.21963385 16.9256572,4.94681609 L5.34583776,1.54759954 Z" id="Rectangle"></path>
                        <path d="M20.7589311,8.43981521 C20.5370582,8.39235459 20.3161923,8.43708013 20.1369564,8.54867112 C19.9536708,8.66278339 19.8139176,8.84681676 19.7611401,9.07372367 C19.6989113,9.34126514 19.7504542,9.61009094 19.92879,9.84106267 C20.1275963,10.0985469 20.4621892,10.3048306 20.9252794,10.4490737 C21.1471523,10.4965343 21.3680182,10.4518088 21.5472541,10.3402178 C21.7305397,10.2261055 21.8702929,10.0420721 21.9230704,9.81516522 C21.9852993,9.54762374 21.9337564,9.27879795 21.7554206,9.04782621 C21.5566142,8.79034198 21.2220214,8.58405826 20.7589311,8.43981521 Z" id="Rectangle-Copy-3"></path>
                        <ellipse id="Oval" transform="translate(21.789474, 8.500000) rotate(15.000000) translate(-21.789474, -8.500000) " cx="21.7894737" cy="8.5" rx="1" ry="1"></ellipse>
                    </g>
                </g>
            </g>
        </g>
    </g>
</svg>